<svg width="138" height="16" viewBox="0 0 138 16" fill="none" xmlns="http://www.w3.org/2000/svg">
<path d="M0.232 0.832H5.656C6.584 0.832 7.304 1.09333 7.816 1.616C8.33867 2.13867 8.6 2.832 8.6 3.696C8.6 4.12267 8.54133 4.48533 8.424 4.784C8.31733 5.08267 8.168 5.328 7.976 5.52C7.79467 5.712 7.576 5.856 7.32 5.952C7.07467 6.03733 6.808 6.08533 6.52 6.096V6.192C6.78667 6.192 7.064 6.24 7.352 6.336C7.65067 6.432 7.92267 6.58667 8.168 6.8C8.41333 7.00267 8.616 7.26933 8.776 7.6C8.94667 7.93067 9.032 8.336 9.032 8.816C9.032 9.25333 8.95733 9.66933 8.808 10.064C8.66933 10.448 8.472 10.784 8.216 11.072C7.96 11.36 7.656 11.5893 7.304 11.76C6.952 11.92 6.568 12 6.152 12H0.232V0.832ZM2.664 9.952H5.464C5.784 9.952 6.03467 9.86667 6.216 9.696C6.408 9.51467 6.504 9.264 6.504 8.944V8.4C6.504 8.08 6.408 7.83467 6.216 7.664C6.03467 7.48267 5.784 7.392 5.464 7.392H2.664V9.952ZM2.664 5.408H5.08C5.4 5.408 5.65067 5.31733 5.832 5.136C6.01333 4.95467 6.104 4.704 6.104 4.384V3.904C6.104 3.584 6.01333 3.33333 5.832 3.152C5.65067 2.97067 5.4 2.88 5.08 2.88H2.664V5.408ZM16.9839 12C16.5572 12 16.1999 11.8667 15.9119 11.6C15.6345 11.3333 15.4585 10.976 15.3839 10.528H15.2879C15.1599 11.072 14.8772 11.488 14.4399 11.776C14.0025 12.0533 13.4639 12.192 12.8239 12.192C11.9812 12.192 11.3359 11.968 10.8879 11.52C10.4399 11.072 10.2159 10.48 10.2159 9.744C10.2159 8.85867 10.5359 8.20267 11.1759 7.776C11.8265 7.33867 12.7065 7.12 13.8159 7.12H15.1439V6.592C15.1439 6.18667 15.0372 5.86667 14.8239 5.632C14.6105 5.38667 14.2532 5.264 13.7519 5.264C13.2825 5.264 12.9092 5.36533 12.6319 5.568C12.3545 5.77067 12.1252 6 11.9439 6.256L10.5359 5.008C10.8772 4.50667 11.3039 4.11733 11.8159 3.84C12.3385 3.552 13.0425 3.408 13.9279 3.408C15.1225 3.408 16.0185 3.66933 16.6159 4.192C17.2132 4.71467 17.5119 5.47733 17.5119 6.48V10.16H18.2959V12H16.9839ZM13.7039 10.544C14.0985 10.544 14.4345 10.4587 14.7119 10.288C14.9999 10.1173 15.1439 9.84 15.1439 9.456V8.464H13.9919C13.0639 8.464 12.5999 8.77867 12.5999 9.408V9.648C12.5999 9.95733 12.6959 10.1867 12.8879 10.336C13.0799 10.4747 13.3519 10.544 13.7039 10.544ZM18.9915 3.6H21.2795L22.0955 6.992L22.6715 9.552H22.7355L23.4075 6.992L24.3675 3.6H26.5275L27.5035 6.992L28.1915 9.552H28.2555L28.8315 6.992L29.6475 3.6H31.8395L29.5195 12H27.0395L26.0155 8.448L25.4235 6.272H25.3755L24.7995 8.448L23.7755 12H21.3435L18.9915 3.6ZM35.5966 12C34.786 12 34.1886 11.8027 33.8046 11.408C33.4313 11.0133 33.2446 10.4427 33.2446 9.696V0.16H35.6126V10.16H36.6686V12H35.5966ZM38.0884 3.6H40.4564V5.008H40.5364C40.6537 4.53867 40.9204 4.15467 41.3364 3.856C41.763 3.55733 42.2484 3.408 42.7924 3.408C43.859 3.408 44.6644 3.78133 45.2084 4.528C45.7524 5.27467 46.0244 6.36267 46.0244 7.792C46.0244 9.22133 45.7524 10.3147 45.2084 11.072C44.6644 11.8187 43.859 12.192 42.7924 12.192C42.515 12.192 42.2537 12.1493 42.0084 12.064C41.763 11.9893 41.539 11.8827 41.3364 11.744C41.1444 11.5947 40.979 11.424 40.8404 11.232C40.7017 11.0293 40.6004 10.816 40.5364 10.592H40.4564V15.2H38.0884V3.6ZM42.0084 10.272C42.4564 10.272 42.8244 10.1173 43.1124 9.808C43.411 9.488 43.5604 9.06133 43.5604 8.528V7.072C43.5604 6.53867 43.411 6.11733 43.1124 5.808C42.8244 5.488 42.4564 5.328 42.0084 5.328C41.5604 5.328 41.187 5.44 40.8884 5.664C40.6004 5.87733 40.4564 6.176 40.4564 6.56V9.04C40.4564 9.424 40.6004 9.728 40.8884 9.952C41.187 10.1653 41.5604 10.272 42.0084 10.272ZM54.0308 12C53.6041 12 53.2468 11.8667 52.9588 11.6C52.6814 11.3333 52.5054 10.976 52.4308 10.528H52.3348C52.2068 11.072 51.9241 11.488 51.4868 11.776C51.0494 12.0533 50.5108 12.192 49.8708 12.192C49.0281 12.192 48.3828 11.968 47.9348 11.52C47.4868 11.072 47.2628 10.48 47.2628 9.744C47.2628 8.85867 47.5828 8.20267 48.2228 7.776C48.8734 7.33867 49.7534 7.12 50.8628 7.12H52.1908V6.592C52.1908 6.18667 52.0841 5.86667 51.8708 5.632C51.6574 5.38667 51.3001 5.264 50.7988 5.264C50.3294 5.264 49.9561 5.36533 49.6788 5.568C49.4014 5.77067 49.1721 6 48.9908 6.256L47.5828 5.008C47.9241 4.50667 48.3508 4.11733 48.8628 3.84C49.3854 3.552 50.0894 3.408 50.9748 3.408C52.1694 3.408 53.0654 3.66933 53.6628 4.192C54.2601 4.71467 54.5588 5.47733 54.5588 6.48V10.16H55.3428V12H54.0308ZM50.7508 10.544C51.1454 10.544 51.4814 10.4587 51.7588 10.288C52.0468 10.1173 52.1908 9.84 52.1908 9.456V8.464H51.0388C50.1108 8.464 49.6468 8.77867 49.6468 9.408V9.648C49.6468 9.95733 49.7428 10.1867 49.9348 10.336C50.1268 10.4747 50.3988 10.544 50.7508 10.544ZM59.7824 12C58.961 12 58.337 11.792 57.9104 11.376C57.4944 10.96 57.2864 10.352 57.2864 9.552V5.44H56.1024V3.6H56.6944C57.0144 3.6 57.233 3.52533 57.3504 3.376C57.4677 3.216 57.5264 2.992 57.5264 2.704V1.328H59.6544V3.6H61.3184V5.44H59.6544V10.16H61.1904V12H59.7824ZM65.8293 12C65.0079 12 64.3839 11.792 63.9573 11.376C63.5413 10.96 63.3333 10.352 63.3333 9.552V5.44H62.1493V3.6H62.7413C63.0613 3.6 63.2799 3.52533 63.3973 3.376C63.5146 3.216 63.5733 2.992 63.5733 2.704V1.328H65.7013V3.6H67.3653V5.44H65.7013V10.16H67.2373V12H65.8293Z" fill="#E24141"/>
<path d="M76.5355 12.192C75.5542 12.192 74.7222 12.0267 74.0395 11.696C73.3568 11.3547 72.7755 10.9173 72.2955 10.384L73.8955 8.768C74.6528 9.62133 75.5862 10.048 76.6955 10.048C77.2928 10.048 77.7355 9.92533 78.0235 9.68C78.3115 9.43467 78.4555 9.10933 78.4555 8.704C78.4555 8.39467 78.3702 8.13867 78.1995 7.936C78.0288 7.72267 77.6822 7.57867 77.1595 7.504L76.0555 7.36C74.8715 7.21067 74.0022 6.85333 73.4475 6.288C72.9035 5.72267 72.6315 4.97067 72.6315 4.032C72.6315 3.53067 72.7275 3.072 72.9195 2.656C73.1115 2.24 73.3835 1.88267 73.7355 1.584C74.0982 1.28533 74.5355 1.056 75.0475 0.896C75.5702 0.725333 76.1622 0.639999 76.8235 0.639999C77.6662 0.639999 78.4075 0.773333 79.0475 1.04C79.6875 1.30667 80.2368 1.696 80.6955 2.208L79.0795 3.84C78.8128 3.53067 78.4875 3.28 78.1035 3.088C77.7302 2.88533 77.2555 2.784 76.6795 2.784C76.1355 2.784 75.7302 2.88 75.4635 3.072C75.1968 3.264 75.0635 3.53067 75.0635 3.872C75.0635 4.256 75.1648 4.53333 75.3675 4.704C75.5808 4.87467 75.9222 4.99733 76.3915 5.072L77.4955 5.248C78.6475 5.42933 79.5008 5.78667 80.0555 6.32C80.6102 6.84267 80.8875 7.58933 80.8875 8.56C80.8875 9.09333 80.7915 9.584 80.5995 10.032C80.4075 10.48 80.1248 10.864 79.7515 11.184C79.3888 11.504 78.9355 11.7547 78.3915 11.936C77.8475 12.1067 77.2288 12.192 76.5355 12.192ZM85.6418 12C84.8204 12 84.1964 11.792 83.7698 11.376C83.3538 10.96 83.1458 10.352 83.1458 9.552V5.44H81.9618V3.6H82.5538C82.8738 3.6 83.0924 3.52533 83.2098 3.376C83.3271 3.216 83.3858 2.992 83.3858 2.704V1.328H85.5138V3.6H87.1778V5.44H85.5138V10.16H87.0498V12H85.6418ZM93.7828 10.592H93.7028C93.6281 10.8053 93.5268 11.008 93.3988 11.2C93.2814 11.392 93.1268 11.5627 92.9348 11.712C92.7428 11.8613 92.5134 11.9787 92.2468 12.064C91.9908 12.1493 91.6921 12.192 91.3508 12.192C90.4868 12.192 89.8308 11.9093 89.3828 11.344C88.9454 10.768 88.7268 9.94667 88.7268 8.88V3.6H91.0948V8.672C91.0948 9.184 91.1854 9.57867 91.3668 9.856C91.5481 10.1333 91.8574 10.272 92.2948 10.272C92.4761 10.272 92.6574 10.2453 92.8388 10.192C93.0201 10.1387 93.1801 10.064 93.3188 9.968C93.4574 9.86133 93.5694 9.73333 93.6548 9.584C93.7401 9.43467 93.7828 9.25867 93.7828 9.056V3.6H96.1508V12H93.7828V10.592ZM103.506 10.592H103.426C103.362 10.816 103.261 11.0293 103.122 11.232C102.983 11.424 102.813 11.5947 102.61 11.744C102.418 11.8827 102.194 11.9893 101.938 12.064C101.693 12.1493 101.437 12.192 101.17 12.192C100.103 12.192 99.298 11.8187 98.754 11.072C98.21 10.3147 97.938 9.22133 97.938 7.792C97.938 6.36267 98.21 5.27467 98.754 4.528C99.298 3.78133 100.103 3.408 101.17 3.408C101.714 3.408 102.194 3.55733 102.61 3.856C103.037 4.15467 103.309 4.53867 103.426 5.008H103.506V0.16H105.874V12H103.506V10.592ZM101.954 10.272C102.402 10.272 102.77 10.1653 103.058 9.952C103.357 9.728 103.506 9.424 103.506 9.04V6.56C103.506 6.176 103.357 5.87733 103.058 5.664C102.77 5.44 102.402 5.328 101.954 5.328C101.506 5.328 101.133 5.488 100.834 5.808C100.546 6.11733 100.402 6.53867 100.402 7.072V8.528C100.402 9.06133 100.546 9.488 100.834 9.808C101.133 10.1173 101.506 10.272 101.954 10.272ZM109.272 2.704C108.792 2.704 108.44 2.59733 108.216 2.384C108.003 2.16 107.896 1.87733 107.896 1.536V1.184C107.896 0.842666 108.003 0.565333 108.216 0.351999C108.44 0.128 108.792 0.0159998 109.272 0.0159998C109.752 0.0159998 110.099 0.128 110.312 0.351999C110.536 0.565333 110.648 0.842666 110.648 1.184V1.536C110.648 1.87733 110.536 2.16 110.312 2.384C110.099 2.59733 109.752 2.704 109.272 2.704ZM108.088 3.6H110.456V12H108.088V3.6ZM116.075 12.192C115.456 12.192 114.901 12.0907 114.411 11.888C113.931 11.6853 113.52 11.392 113.179 11.008C112.848 10.624 112.592 10.16 112.411 9.616C112.229 9.072 112.139 8.464 112.139 7.792C112.139 7.12 112.229 6.512 112.411 5.968C112.592 5.424 112.848 4.96533 113.179 4.592C113.52 4.208 113.931 3.91467 114.411 3.712C114.901 3.50933 115.456 3.408 116.075 3.408C116.693 3.408 117.243 3.50933 117.723 3.712C118.213 3.91467 118.624 4.208 118.955 4.592C119.296 4.96533 119.557 5.424 119.739 5.968C119.92 6.512 120.01 7.12 120.01 7.792C120.01 8.464 119.92 9.072 119.739 9.616C119.557 10.16 119.296 10.624 118.955 11.008C118.624 11.392 118.213 11.6853 117.723 11.888C117.243 12.0907 116.693 12.192 116.075 12.192ZM116.075 10.32C116.544 10.32 116.907 10.176 117.163 9.888C117.419 9.6 117.547 9.18933 117.547 8.656V6.944C117.547 6.41067 117.419 6 117.163 5.712C116.907 5.424 116.544 5.28 116.075 5.28C115.605 5.28 115.243 5.424 114.987 5.712C114.731 6 114.603 6.41067 114.603 6.944V8.656C114.603 9.18933 114.731 9.6 114.987 9.888C115.243 10.176 115.605 10.32 116.075 10.32ZM124.546 12.192C123.735 12.192 123.052 12.064 122.498 11.808C121.943 11.5413 121.447 11.168 121.01 10.688L122.402 9.28C122.7 9.61067 123.031 9.872 123.394 10.064C123.756 10.256 124.167 10.352 124.626 10.352C125.095 10.352 125.42 10.2827 125.602 10.144C125.783 9.99467 125.874 9.79733 125.874 9.552C125.874 9.15733 125.591 8.92267 125.026 8.848L124.114 8.736C122.226 8.50133 121.282 7.63733 121.282 6.144C121.282 5.73867 121.356 5.37067 121.506 5.04C121.666 4.69867 121.884 4.41067 122.162 4.176C122.45 3.93067 122.791 3.744 123.186 3.616C123.591 3.47733 124.044 3.408 124.546 3.408C124.983 3.408 125.367 3.44 125.698 3.504C126.039 3.55733 126.338 3.64267 126.594 3.76C126.86 3.86667 127.1 4.00533 127.314 4.176C127.538 4.336 127.756 4.51733 127.97 4.72L126.61 6.112C126.343 5.84533 126.039 5.63733 125.698 5.488C125.367 5.328 125.026 5.248 124.674 5.248C124.268 5.248 123.98 5.312 123.81 5.44C123.639 5.568 123.554 5.73867 123.554 5.952C123.554 6.176 123.612 6.352 123.73 6.48C123.858 6.59733 124.092 6.68267 124.434 6.736L125.378 6.864C127.223 7.10933 128.146 7.952 128.146 9.392C128.146 9.79733 128.06 10.1707 127.89 10.512C127.719 10.8533 127.474 11.152 127.154 11.408C126.844 11.6533 126.466 11.8453 126.018 11.984C125.58 12.1227 125.09 12.192 124.546 12.192ZM130.112 5.456V1.808H129.04V0.832H132.544V1.808H131.488V5.456H130.112ZM133.024 5.456V0.832H134.464L135.344 2.544H135.44L136.304 0.832H137.648V5.456H136.512V3.936L136.64 2.432H136.576L135.344 4.752L134.096 2.432H134.032L134.176 3.936V5.456H133.024Z" fill="white"/>
</svg>
